<svg width="176" height="68" viewBox="0 0 176 68" fill="none" xmlns="http://www.w3.org/2000/svg">
<path d="M19.3969 34.544C16.2909 39.44 10.0154 49.368 6.08531 49.368C4.94431 49.368 4.37382 48.552 4.37382 46.716C4.37382 40.12 11.4733 27.472 17.4319 27.472C19.7139 27.472 20.5379 29.24 20.5379 31.28C20.5379 32.028 20.4111 32.912 20.221 33.66C22.0592 33.66 23.327 32.98 23.327 30.736C23.327 27.676 20.8549 25.636 17.5587 25.636C9.31813 25.636 0 38.42 0 46.512C0 50.32 2.02844 52.156 4.69076 52.156C7.7968 52.156 10.5859 49.504 14.2624 44.268C14.1357 45.016 14.0723 45.696 14.0723 46.24C14.0723 48.62 15.5302 51 18.6363 51C23.1368 51 28.5249 45.968 31.1872 38.624L30.5533 37.944C26.75 45.152 22.6931 48.688 20.4111 48.688C18.8898 48.688 18.2559 47.056 18.2559 45.696C18.2559 42.432 21.9325 37.808 21.9325 36.244C21.9325 35.224 20.1576 34.68 19.3969 34.544ZM50.3004 37.944C47.955 42.228 46.2435 44.608 43.2642 44.608C39.2707 44.608 38.5735 40.188 37.7494 34C37.6226 33.048 37.0521 32.028 36.1647 31.824C36.545 30.668 36.9254 29.512 37.3691 28.424C45.4194 22.372 54.2938 10.744 54.2938 2.992C54.2938 1.36 53.9135 0 52.1386 0C41.6161 0 25.0083 48.076 25.0083 62.016C25.0083 67.048 27.1635 68 28.4947 68C33.3122 68 38.1931 55.488 38.2565 44.132C39.6511 45.492 41.426 46.376 42.9473 46.376C45.4194 46.376 49.096 44.064 51.2512 38.624L50.3004 37.944ZM36.6084 44.88C36.6084 52.02 32.5515 64.736 30.1428 64.736C29.3821 64.736 28.9384 63.512 28.9384 61.472C28.9384 56.848 31.2204 47.124 34.4532 36.924C35.9745 40.12 36.6084 42.092 36.6084 44.88ZM50.9342 4.556C51.5047 4.556 51.8217 4.828 51.8217 5.508C51.8217 8.296 46.5604 17.544 38.3833 25.636C42.6937 14.144 47.638 4.556 50.9342 4.556ZM49.8235 41.48C51.1546 39.032 53.5 33.796 55.465 28.424C57.0498 29.648 59.0148 30.668 59.0148 33.592C59.0148 37.196 55.5284 42.296 55.5284 46.308C55.5284 48.96 57.3033 50.728 60.1558 50.728C65.5438 50.728 70.9953 44.608 73.404 38.828L72.58 38.148C70.9953 42.092 65.7974 48.28 61.8039 48.28C60.7897 48.28 59.9023 47.872 59.9023 46.24C59.9023 43.384 63.0717 38.896 63.0717 34.748C63.0717 28.968 56.606 27.812 56.606 25.296C56.606 25.024 57.3033 23.256 57.3033 22.78C57.3033 22.304 57.3033 21.148 56.4159 21.148C55.7186 21.148 53.7536 23.052 53.7536 25.772C53.7536 26.452 54.0071 26.996 54.3874 27.404C52.5492 33.184 50.394 37.944 49.253 40.324L49.8235 41.48ZM98.1657 38.08C96.5176 41.82 94.9329 43.248 93.158 43.248C90.9394 43.248 88.7208 41.072 88.7208 37.604C88.7208 34 91.193 30.736 91.193 29.036C91.193 28.22 90.6225 26.384 89.0377 26.384C88.8476 26.384 88.7208 26.384 88.594 26.452C88.2137 25.636 87.453 25.024 85.8683 25.024C78.3251 25.024 70.5283 38.012 70.5283 45.22C70.5283 48.688 72.3665 51.136 75.5994 51.136C80.0366 51.136 84.03 46.512 86.6924 39.848C87.9601 42.976 90.3055 44.608 92.6509 44.608C94.7427 44.608 97.1515 43.316 98.9898 38.76L98.1657 38.08ZM76.9939 48.212C75.4726 48.212 74.5851 46.852 74.5851 44.744C74.5851 39.576 79.7196 27.676 86.8825 27.676C86.1853 28.832 85.6781 30.804 85.6781 33.864C85.6781 35.428 85.8049 36.652 86.0585 37.74C83.7765 43.588 79.8464 48.212 76.9939 48.212ZM115.678 27.54C115.742 27.2 115.805 26.928 115.805 26.588C115.805 25.16 114.791 24.48 113.016 24.48C105.156 24.48 95.9644 37.74 95.9644 45.288C95.9644 49.3 98.5634 51 100.719 51C104.585 51 109.53 45.628 113.65 38.352C112.889 41.48 112.445 44.064 112.445 45.628C112.445 48.008 113.46 50.728 116.629 50.728C120.94 50.728 126.454 45.56 128.927 38.556L128.166 37.944C125.504 44.132 121.003 48.008 118.404 48.008C116.946 48.008 116.946 46.784 116.946 44.2C116.946 30.736 131.525 5.848 131.525 1.564C131.525 0.680002 130.955 0 130.258 0C126.771 0 121.066 15.912 116.376 29.036C112.319 40.392 106.107 47.736 102.684 47.736C101.289 47.736 100.402 46.512 100.402 44.472C100.402 39.236 106.424 26.52 113.27 26.52C114.411 26.52 115.235 26.86 115.678 27.54ZM146.145 28.628C146.145 25.296 144.18 24.48 142.215 24.48C134.735 24.48 126.114 35.972 126.114 44.064C126.114 48.484 128.713 51.952 133.848 51.952C140.123 51.952 146.715 46.716 150.138 38.556L149.378 37.944C146.208 44.472 140.567 49.98 135.179 49.98C131.249 49.98 130.171 47.056 130.171 44.268C130.171 43.588 130.234 42.704 130.425 41.82C137.651 41.072 146.145 35.564 146.145 28.628ZM142.025 26.588C143.102 26.588 143.356 27.132 143.356 28.152C143.356 34 135.242 38.828 130.742 40.528C132.453 34.068 137.968 26.588 142.025 26.588ZM175.176 38.216C173.528 41.956 171.943 43.248 170.168 43.248C167.506 43.248 167.189 40.324 167.189 38.08C167.189 32.028 169.408 30.736 169.408 28.968C169.408 28.016 168.71 26.384 167.126 26.384C165.541 26.384 164.4 27.948 164.21 34.068C161.547 40.392 156.857 48.96 153.751 48.96C152.61 48.96 152.293 47.804 152.293 45.152C152.293 41.616 152.863 37.196 152.863 34.204C152.863 32.504 152.673 32.028 151.215 32.028C149.377 32.028 149.313 32.776 149.187 35.224C148.87 41.548 148.806 43.996 148.806 44.132C148.806 48.552 149.63 51.612 152.293 51.612C156.35 51.612 161.294 44.608 164.4 38.012C164.97 42.432 166.935 44.608 169.725 44.608C171.753 44.608 174.162 43.452 176 38.896L175.176 38.216Z" fill="white" fill-opacity="0.94"/>
</svg>
